<?xml version="1.0" encoding="UTF-8" standalone="no"?>
<svg
   fill="none"
   stroke="#ffffff"
   stroke-width="2"
   aria-hidden="true"
   viewBox="0 0 24 24"
   version="1.1"
   id="svg1"
   width="24"
   height="24"
   sodipodi:docname="plugdex.svg"
   inkscape:version="1.4 (86a8ad7, 2024-10-11)"
   xmlns:inkscape="http://www.inkscape.org/namespaces/inkscape"
   xmlns:sodipodi="http://sodipodi.sourceforge.net/DTD/sodipodi-0.dtd"
   xmlns:xlink="http://www.w3.org/1999/xlink"
   xmlns="http://www.w3.org/2000/svg"
   xmlns:svg="http://www.w3.org/2000/svg">
  <sodipodi:namedview
     id="namedview1"
     pagecolor="#ffffff"
     bordercolor="#000000"
     borderopacity="0.25"
     inkscape:showpageshadow="2"
     inkscape:pageopacity="0.0"
     inkscape:pagecheckerboard="0"
     inkscape:deskcolor="#d1d1d1"
     inkscape:zoom="16"
     inkscape:cx="22.375"
     inkscape:cy="14.90625"
     inkscape:window-width="1920"
     inkscape:window-height="1017"
     inkscape:window-x="-8"
     inkscape:window-y="-8"
     inkscape:window-maximized="1"
     inkscape:current-layer="g341" />
  <defs
     id="defs1">
    <linearGradient
       inkscape:collect="always"
       xlink:href="#linearGradient354"
       id="linearGradient359"
       x1="243.40614"
       y1="499.27466"
       x2="243.40614"
       y2="508.14182"
       gradientUnits="userSpaceOnUse"
       gradientTransform="translate(0.80115175)" />
    <linearGradient
       id="linearGradient354"
       inkscape:collect="always">
      <stop
         style="stop-color:#214984;stop-opacity:1;"
         offset="0"
         id="stop354" />
      <stop
         style="stop-color:#1e3f72;stop-opacity:1;"
         offset="0.5"
         id="stop357" />
      <stop
         style="stop-color:#1b3969;stop-opacity:1;"
         offset="1"
         id="stop355" />
    </linearGradient>
  </defs>
  <g
     id="g341"
     inkscape:label="PlugDex"
     transform="matrix(2.0370557,0,0,2.0370557,-485.47758,-1015.9029)">
    <path
       id="path334"
       style="display:inline;opacity:1;fill:#000a22;fill-opacity:1;stroke:none;stroke-width:1.43022;stroke-linecap:round;stroke-linejoin:round;paint-order:stroke markers fill"
       d="m 240.99921,498.71139 v 5.2e-4 c -0.81411,0 -1.47432,0.66022 -1.47432,1.47433 v 8.73486 c 0,0.8682 0.70379,1.572 1.57199,1.572 h 7.37836 v -5.1e-4 c 0.22029,0 0.40125,-0.16647 0.4253,-0.38034 0.009,-0.0981 -0.035,-0.20223 -0.11575,-0.26304 -0.29314,-0.20381 -0.46463,-0.60049 -0.41393,-1.00614 0.0254,-0.20282 0.10266,-0.38378 0.21394,-0.5271 0.0557,-0.0717 0.11495,-0.11829 0.185,-0.17208 0.0664,-0.051 0.0504,-0.0367 0.0951,-0.0904 0.0192,-0.023 0.0285,-0.0398 0.0305,-0.063 0.0138,-0.15675 0.005,-0.47697 0.005,-0.47697 h -5.2e-4 v -7.73286 c 0,-0.5903 -0.47888,-1.06919 -1.06918,-1.06919 -0.006,0 -0.012,4.1e-4 -0.0181,5.2e-4 h -6.8032 c -0.003,-3e-5 -0.007,-5.2e-4 -0.0103,-5.2e-4 z"
       inkscape:label="Base"
       sodipodi:nodetypes="ccssscccccssccccsscccc" />
    <path
       id="circle341"
       style="display:inline;opacity:1;fill:#74a5ce;fill-opacity:1;stroke:none;stroke-width:0.785437;stroke-linecap:round;stroke-linejoin:round;paint-order:stroke markers fill"
       d="m 241.15838,508.21475 c -0.47679,0 -0.86352,0.38666 -0.86352,0.86345 0,0.47679 0.38673,0.863 0.86352,0.863 h 6.90655 c 0.005,-0.0151 0.009,-0.0301 0.0155,-0.0444 -0.21095,-0.32021 -0.30435,-0.72037 -0.25425,-1.12138 0.0223,-0.20468 0.0791,-0.39288 0.16433,-0.56018 z"
       inkscape:label="Side"
       sodipodi:nodetypes="cssccccc" />
    <path
       id="path352"
       style="display:inline;opacity:1;fill:#315c8c;fill-opacity:1;stroke:none;stroke-width:0.785;stroke-linecap:round;stroke-linejoin:round;stroke-dasharray:none;paint-order:stroke markers fill"
       d="m 241.15818,508.21496 c -0.47679,0 -0.86352,0.3862 -0.86352,0.86299 0,0.36128 0.22242,0.67027 0.53744,0.79892 0.005,0.004 0.0105,0.005 0.0155,0.007 -0.0181,-0.0588 -0.0363,-0.11515 -0.0512,-0.18355 -0.0149,-0.0684 -0.0269,-0.14633 -0.0274,-0.24133 -5e-4,-0.095 0.0103,-0.20711 0.0274,-0.28991 0.0171,-0.0828 0.0404,-0.13598 0.0765,-0.18758 0.036,-0.0517 0.0849,-0.10181 0.12868,-0.13591 0.0439,-0.034 0.0831,-0.0521 0.12247,-0.0667 0.0394,-0.0146 0.0795,-0.0256 0.11937,-0.0362 h 6.58773 c 0.0247,-0.1917 0.0786,-0.369 0.15917,-0.5271 l -6.74688,-5.1e-4 z"
       inkscape:label="Side Shade"
       sodipodi:nodetypes="csccsssccsccccc" />
    <path
       id="rect345"
       style="display:inline;opacity:1;fill:url(#linearGradient359);stroke:none;stroke-width:1.60619;stroke-linecap:round;stroke-linejoin:round;paint-order:stroke markers fill"
       d="m 240.96046,499.27467 v 5.1e-4 h -5.2e-4 c -0.48338,0 -0.87488,0.3915 -0.87488,0.87488 v 7.99176 c 0.21895,-0.29956 0.57354,-0.49454 0.9741,-0.49454 h 6.13192 0.20464 0.9338 v -7.82691 h -5.2e-4 c 0,-0.30094 -0.2427,-0.54519 -0.54364,-0.54519 v -5.1e-4 z"
       inkscape:label="Cover"
       sodipodi:nodetypes="ccsscscccccccc" />
    <path
       id="circle339"
       style="display:inline;opacity:1;fill:#b3ff00;fill-opacity:1;stroke:#000a22;stroke-width:0.992;stroke-linecap:round;stroke-linejoin:round;stroke-dasharray:none;stroke-opacity:1;paint-order:stroke markers fill"
       d="m 243.31975,501.10065 c -0.53774,0.34784 -0.86166,0.94529 -0.85974,1.58572 0.003,1.03906 0.84779,1.87895 1.88685,1.87617 0.30813,-0.002 0.61095,-0.0805 0.88185,-0.22739 l 1.19698,1.62445 c 0.095,0.12899 0.27722,0.15623 0.40559,0.0604 0.12883,-0.0949 0.15616,-0.27684 0.0607,-0.40519 l -2.9e-4,-4.1e-4 -3e-4,-4.2e-4 c -0.003,-0.004 -0.005,-0.007 -0.009,-0.0112 l -1.19188,-1.61728 c 0.34086,-0.35076 0.53219,-0.82044 0.53269,-1.30954 -0.003,-1.03929 -0.84785,-1.87961 -1.88714,-1.8769 -0.36084,9.1e-4 -0.7138,0.10554 -1.01684,0.30142 z m 0.12817,0.52087 c 0.24914,-0.21011 0.56436,-0.32568 0.89027,-0.3264 0.76517,-0.002 1.38694,0.617 1.3889,1.38217 0.002,0.76522 -0.61664,1.38721 -1.38186,1.38934 -0.76522,0.002 -1.38721,-0.61665 -1.38934,-1.38187 -0.001,-0.40973 0.1789,-0.799 0.49203,-1.06324 z"
       inkscape:label="Magnifying Glass"
       sodipodi:nodetypes="ccccccccccccccccccccc" />
    <path
       id="path350"
       style="display:inline;opacity:1;fill:#112645;fill-opacity:1;stroke:none;stroke-width:1.60619;stroke-linecap:round;stroke-linejoin:round;paint-order:stroke markers fill"
       inkscape:label="Cover Side"
       d="m 240.73701,499.3049 c -0.37511,0.0987 -0.65215,0.43873 -0.65215,0.84491 v 7.99176 c 0.15786,-0.21598 0.38687,-0.37621 0.65215,-0.44958 z"
       sodipodi:nodetypes="csccc" />
  </g>
</svg>
