<?xml version="1.0" encoding="UTF-8" standalone="no"?>
<!-- Uploaded to: SVG Repo, www.svgrepo.com, Generator: SVG Repo Mixer Tools -->

<svg
   width="24"
   height="24"
   viewBox="0 0 0.96 0.96"
   fill="none"
   version="1.1"
   id="svg1"
   sodipodi:docname="settings.svg"
   inkscape:version="1.4 (86a8ad7, 2024-10-11)"
   xmlns:inkscape="http://www.inkscape.org/namespaces/inkscape"
   xmlns:sodipodi="http://sodipodi.sourceforge.net/DTD/sodipodi-0.dtd"
   xmlns:xlink="http://www.w3.org/1999/xlink"
   xmlns="http://www.w3.org/2000/svg"
   xmlns:svg="http://www.w3.org/2000/svg">
  <defs
     id="defs1">
    <linearGradient
       id="swatch3"
       inkscape:swatch="solid">
      <stop
         style="stop-color:#000a22;stop-opacity:1;"
         offset="0"
         id="stop3" />
    </linearGradient>
    <linearGradient
       id="linearGradient354"
       inkscape:collect="always">
      <stop
         style="stop-color:#214984;stop-opacity:1;"
         offset="0"
         id="stop354" />
      <stop
         style="stop-color:#1e3f72;stop-opacity:1;"
         offset="0.5"
         id="stop357" />
      <stop
         style="stop-color:#1b3969;stop-opacity:1;"
         offset="1"
         id="stop355" />
    </linearGradient>
    <linearGradient
       inkscape:collect="always"
       xlink:href="#linearGradient354"
       id="linearGradient2"
       x1="16"
       y1="2"
       x2="16"
       y2="30"
       gradientUnits="userSpaceOnUse"
       gradientTransform="matrix(0.03199986,0,0,0.03199986,-0.03199433,-0.03199481)" />
    <linearGradient
       inkscape:collect="always"
       xlink:href="#swatch3"
       id="linearGradient3"
       x1="8.2995315e-06"
       y1="0.48"
       x2="0.9599917"
       y2="0.48"
       gradientUnits="userSpaceOnUse" />
  </defs>
  <sodipodi:namedview
     id="namedview1"
     pagecolor="#ffffff"
     bordercolor="#000000"
     borderopacity="0.25"
     inkscape:showpageshadow="2"
     inkscape:pageopacity="0.0"
     inkscape:pagecheckerboard="0"
     inkscape:deskcolor="#d1d1d1"
     inkscape:zoom="16.74"
     inkscape:cx="1.5531661"
     inkscape:cy="18.847073"
     inkscape:window-width="1920"
     inkscape:window-height="1017"
     inkscape:window-x="-8"
     inkscape:window-y="-8"
     inkscape:window-maximized="1"
     inkscape:current-layer="svg1" />
  <path
     style="fill:url(#linearGradient2);stroke-width:0.0319999;stroke-linejoin:round"
     d="m 0.41296365,0.07613275 a 0.01599993,0.01599993 0 0 1 0.01552,-0.012128 h 0.1030396 a 0.01599993,0.01599993 0 0 1 0.01552,0.012128 l 0.022048,0.088224 a 0.01647993,0.01647993 0 0 0 0.010912,0.011584 c 0.012256,0.00403 0.02416,0.00877 0.03568,0.014176 a 0.01647993,0.01647993 0 0 0 0.014368,-9.6e-5 l 0.088544,-0.044256 a 0.01599993,0.01599993 0 0 1 0.018464,0.00298 l 0.074208,0.074208 a 0.01599993,0.01599993 0 0 1 0.00298,0.018464 l -0.044256,0.088544 a 0.01647993,0.01647993 0 0 0 -9.6e-5,0.014368 c 0.00406,0.00867 0.00778,0.017568 0.011072,0.026656 0.0017,0.00474 0.00544,0.00848 0.010208,0.01008 l 0.093888,0.031296 a 0.01599993,0.01599993 0 0 1 0.010944,0.015168 v 0.1049595 a 0.01599993,0.01599993 0 0 1 -0.010944,0.015168 l -0.093888,0.031296 a 0.01647993,0.01647993 0 0 0 -0.01024,0.01008 0.31798257,0.31798257 0 0 1 -0.01104,0.026656 0.01647993,0.01647993 0 0 0 9.6e-5,0.014368 l 0.044256,0.088544 a 0.01599993,0.01599993 0 0 1 -0.00298,0.018464 l -0.074208,0.074208 a 0.01599993,0.01599993 0 0 1 -0.018464,0.00298 l -0.088544,-0.044256 a 0.01647993,0.01647993 0 0 0 -0.014368,-9.6e-5 c -0.00867,0.00406 -0.017568,0.00778 -0.026656,0.011072 a 0.01647993,0.01647993 0 0 0 -0.01008,0.010208 l -0.0312962,0.0938768 a 0.01599993,0.01599993 0 0 1 -0.0151679,0.010944 h -0.1049596 a 0.01599993,0.01599993 0 0 1 -0.0151679,-0.010944 l -0.031296,-0.093888 a 0.01647993,0.01647993 0 0 0 -0.01008,-0.01024 0.31839857,0.31839857 0 0 1 -0.035232,-0.0152 0.01647993,0.01647993 0 0 0 -0.015936,4.48e-4 l -0.077984,0.046816 a 0.01599993,0.01599993 0 0 1 -0.019552,-0.0024 l -0.072864,-0.072864 a 0.01599993,0.01599993 0 0 1 -0.0024,-0.01952 l 0.046816,-0.078016 a 0.01647993,0.01647993 0 0 0 4.49e-4,-0.015935 0.31801457,0.31801457 0 0 1 -0.0183359,-0.044256 0.01647993,0.01647993 0 0 0 -0.011584,-0.010912 l -0.088224,-0.02208 a 0.01599993,0.01599993 0 0 1 -0.0121275,-0.0154874 v -0.1030395 a 0.01599993,0.01599993 0 0 1 0.012128,-0.01552 l 0.0882235,-0.022048 a 0.01647993,0.01647993 0 0 0 0.011584,-0.010912 c 0.00502,-0.015296 0.0112,-0.03008 0.018336,-0.044256 a 0.01647993,0.01647993 0 0 0 -4.48e-4,-0.015936 l -0.046816,-0.077984 a 0.01599993,0.01599993 0 0 1 0.0024,-0.019552 l 0.072864,-0.072864 a 0.01599993,0.01599993 0 0 1 0.01952,-0.0024 l 0.078016,0.046816 c 0.00486,0.00291 0.01088,0.00301 0.015936,4.48e-4 a 0.31801457,0.31801457 0 0 1 0.044224,-0.018336 0.01647993,0.01647993 0 0 0 0.010944,-0.011584 l 0.02208,-0.088224 z"
     id="path2" />
  <path
     style="fill:#b3ff00;stroke:url(#linearGradient3);stroke-width:0.0404;stroke-linejoin:round;stroke-opacity:1;stroke-dasharray:none"
     d="m 0.42844105,0.01600495 c -0.029127,8.1e-6 -0.055013,0.020239 -0.062062,0.0485 a 0.04800458,0.04800458 0 0 0 0,1.251e-4 l -0.018125,0.072625 c -0.00588,0.00226 -0.011687,0.00469 -0.017437,0.00725 l -0.064312,-0.038625 a 0.04800458,0.04800458 0 0 0 -6.24e-5,-6.24e-5 c -0.024943,-0.014936 -0.05748,-0.010908 -0.078062,0.00962 a 0.04800458,0.04800458 0 0 0 -6.24e-5,0 l -0.072875,0.072875 c -0.020596,0.020601 -0.024564,0.053279 -0.00956,0.07825 l 0.038625,0.06425 c -0.00256,0.00574 -0.00497,0.01153 -0.00725,0.017437 l -0.07275,0.018125 c -0.028261,0.00705 -0.048492,0.032936 -0.0485,0.062062 a 0.04800458,0.04800458 0 0 0 0,6.4e-5 v 0.1029995 a 0.04800458,0.04800458 0 0 0 0,1.248e-4 c 6.62e-5,0.029081 0.020283,0.0549 0.0485,0.061937 l 0.07275,0.018187 c 0.00226,0.00588 0.00469,0.011683 0.00725,0.017437 l -0.038625,0.064312 a 0.04800458,0.04800458 0 0 0 -6.24e-5,6.4e-5 c -0.014936,0.024943 -0.010908,0.05748 0.00962,0.078062 a 0.04800458,0.04800458 0 0 0 0,6.4e-5 l 0.072875,0.072875 c 0.020586,0.020581 0.053224,0.024525 0.078187,0.00956 l 0.064062,-0.038437 c 0.00312,0.00139 0.00622,0.00276 0.00937,0.00406 l 0.026875,0.0805 c 0.00864,0.02595 0.033336,0.043729 0.060687,0.04375 h 0.1049996 c 0.027351,-2.08e-5 0.052044,-0.0178 0.060687,-0.04375 l 0.02675,-0.080187 c 5.261e-4,-2.176e-4 0.00104,-4.678e-4 0.00156,-6.873e-4 l 0.075562,0.037812 c 0.024452,0.012249 0.054509,0.00737 0.073875,-0.011937 a 0.04800458,0.04800458 0 0 0 6.4e-5,-6.4e-5 l 0.074187,-0.074187 a 0.04800458,0.04800458 0 0 0 6.4e-5,-6.4e-5 c 0.019296,-0.01935 0.02415,-0.04937 0.011937,-0.073812 v -6.4e-5 l -0.037812,-0.075562 c 2.176e-4,-5.251e-4 4.71e-4,-0.00104 6.873e-4,-0.00156 l 0.080187,-0.02675 c 0.025947,-0.00864 0.043726,-0.033336 0.043747,-0.060687 v -0.1049935 c -2.07e-5,-0.027351 -0.0178,-0.052044 -0.04375,-0.060687 l -0.080187,-0.02675 c -2.176e-4,-5.261e-4 -4.679e-4,-0.00104 -6.874e-4,-0.00156 l 0.037812,-0.075562 v -6.24e-5 c 0.012212,-0.024442 0.00736,-0.054462 -0.011937,-0.073812 a 0.04800458,0.04800458 0 0 0 -6.4e-5,-6.24e-5 l -0.074176,-0.07419 a 0.04800458,0.04800458 0 0 0 -6.4e-5,-6.24e-5 c -0.0193641,-0.0193118 -0.0494213,-0.0241868 -0.0738735,-0.0119379 l -0.075875,0.037937 c -0.00314,-0.00131 -0.00632,-0.00253 -0.0095,-0.00375 l -0.018062,-0.0725 c -0.00705,-0.028261 -0.032936,-0.048492 -0.062062,-0.0485 a 0.04800458,0.04800458 0 0 0 -6.4e-5,0 h -0.1029998 a 0.04800458,0.04800458 0 0 0 -6.4e-5,0 z m 0.025062,0.096 h 0.053062 l 0.015937,0.064 a 0.04800458,0.04800458 0 0 0 1.248e-4,3.126e-4 c 0.00549,0.021372 0.021682,0.038552 0.042687,0.045312 l -3.135e-4,-6.24e-5 c 0.010332,0.0034 0.020376,0.00734 0.030062,0.011875 0.017777,0.00846 0.038525,0.00833 0.056187,-3.75e-4 a 0.04800458,0.04800458 0 0 0 2.496e-4,-1.251e-4 l 0.067939,-0.033937 0.041562,0.041562 -0.033937,0.067937 a 0.04800458,0.04800458 0 0 0 -1.248e-4,2.496e-4 c -0.0087,0.017662 -0.00884,0.038411 -3.75e-4,0.056187 0.00341,0.0073 0.00645,0.014715 0.00919,0.02225 0.00655,0.018286 0.021131,0.033001 0.040125,0.039375 a 0.04800458,0.04800458 0 0 0 1.248e-4,0 l 0.072,0.024 v 0.058875 l -0.072,0.024 a 0.04800458,0.04800458 0 0 0 -2.495e-4,6.4e-5 c -0.018621,0.0063 -0.033378,0.020868 -0.04,0.039375 -1.04e-5,2.91e-5 -5.12e-5,3.2e-5 -6.4e-5,6.4e-5 -0.00272,0.0075 -0.00575,0.014892 -0.00912,0.022125 -0.00846,0.017777 -0.00833,0.038525 3.75e-4,0.056187 a 0.04800458,0.04800458 0 0 0 1.248e-4,2.496e-4 l 0.033937,0.067937 -0.041562,0.041562 -0.067937,-0.033937 a 0.04800458,0.04800458 0 0 0 -2.555e-4,-1.256e-4 c -0.017662,-0.0087 -0.038411,-0.00884 -0.056187,-3.75e-4 -0.00726,0.00339 -0.014627,0.00646 -0.022125,0.00919 -0.018521,0.00658 -0.033091,0.021335 -0.039437,0.039937 a 0.04800458,0.04800458 0 0 0 -6.4e-5,3.136e-4 l -0.024,0.072 h -0.058875 l -0.024,-0.072 a 0.04800458,0.04800458 0 0 0 -6.4e-5,-2.496e-4 c -0.00631,-0.01865 -0.020889,-0.033455 -0.039437,-0.040062 -0.010001,-0.00363 -0.019808,-0.00784 -0.029312,-0.012625 -0.019645,-0.010147 -0.043268,-0.00948 -0.062312,0.00175 a 0.04800458,0.04800458 0 0 0 -3.136e-4,1.888e-4 l -0.05662,0.033932 -0.037437,-0.037437 0.033937,-0.056625 a 0.04800458,0.04800458 0 0 0 1.875e-4,-3.136e-4 c 0.011234,-0.019043 0.011897,-0.042666 0.00175,-0.062311 -0.00605,-0.012001 -0.011181,-0.024483 -0.015375,-0.03725 l 6.24e-5,3.136e-4 c -0.00676,-0.021007 -0.02394,-0.037194 -0.045312,-0.042688 a 0.04800458,0.04800458 0 0 0 -3.125e-4,-1.25e-4 l -0.064,-0.016 v -0.053062 l 0.064,-0.015938 a 0.04800458,0.04800458 0 0 0 3.126e-4,-1.248e-4 c 0.021372,-0.00549 0.038552,-0.021681 0.045312,-0.042687 l -6.24e-5,3.136e-4 c 0.0042,-0.012777 0.00936,-0.025242 0.015375,-0.03725 0.010147,-0.019645 0.00948,-0.043268 -0.00175,-0.062312 a 0.04800458,0.04800458 0 0 0 -1.88e-4,-3.163e-4 l -0.033938,-0.056625 0.037437,-0.037437 0.056625,0.033937 c 0.019431,0.011633 0.043135,0.011835 0.062312,0.00213 0.01199,-0.00607 0.024367,-0.011221 0.037125,-0.015437 0.021054,-0.00672 0.037294,-0.023973 0.042812,-0.045375 a 0.04800458,0.04800458 0 0 0 1.25e-4,-3.125e-4 z"
     id="path3" />
  <path
     style="fill:#b3ff00;stroke:#000a22;stroke-width:0.0404;stroke-linecap:round;stroke-linejoin:round;stroke-opacity:1;stroke-dasharray:none"
     d="m 0.48125335,0.27200385 c -0.1143062,0 -0.2079991,0.093693 -0.2079991,0.207999 0,0.1143062 0.093693,0.2079991 0.2079991,0.2079991 0.1143062,0 0.2079991,-0.093693 0.2079991,-0.2079991 0,-0.1143061 -0.093693,-0.207999 -0.2079991,-0.207999 z m 0,0.096 c 0.062424,0 0.1119995,0.049575 0.1119995,0.1119995 0,0.062424 -0.049575,0.1119995 -0.1119995,0.1119995 -0.062424,0 -0.1119995,-0.049575 -0.1119995,-0.1119995 0,-0.062424 0.049575,-0.1119995 0.1119995,-0.1119995 z"
     id="circle1" />
</svg>
