<?xml version="1.0" encoding="UTF-8" standalone="no"?>
<!-- Created with Inkscape (http://www.inkscape.org/) -->
<!-- Made By Dart Spark 2025 -->

<svg
   width="1024"
   height="1024"
   viewBox="0 0 270.93333 270.93333"
   version="1.1"
   id="svg1"
   inkscape:version="1.4 (86a8ad7, 2024-10-11)"
   sodipodi:docname="icon.svg"
   xmlns:inkscape="http://www.inkscape.org/namespaces/inkscape"
   xmlns:sodipodi="http://sodipodi.sourceforge.net/DTD/sodipodi-0.dtd"
   xmlns:xlink="http://www.w3.org/1999/xlink"
   xmlns="http://www.w3.org/2000/svg"
   xmlns:svg="http://www.w3.org/2000/svg">
  <sodipodi:namedview
     id="namedview1"
     pagecolor="#ffffff"
     bordercolor="#000000"
     borderopacity="0.25"
     inkscape:showpageshadow="2"
     inkscape:pageopacity="0.0"
     inkscape:pagecheckerboard="0"
     inkscape:deskcolor="#d1d1d1"
     inkscape:document-units="px"
     inkscape:zoom="0.52724989"
     inkscape:cx="138.45427"
     inkscape:cy="524.41927"
     inkscape:window-width="1920"
     inkscape:window-height="1017"
     inkscape:window-x="-8"
     inkscape:window-y="-8"
     inkscape:window-maximized="1"
     inkscape:current-layer="layer1" />
  <defs
     id="defs1">
    <linearGradient
       inkscape:collect="always"
       xlink:href="#linearGradient329"
       id="linearGradient253-4"
       gradientUnits="userSpaceOnUse"
       x1="425.37952"
       y1="799.65863"
       x2="425.37952"
       y2="990.62994"
       gradientTransform="matrix(1.3137033,0,0,1.3137033,-423.46486,-1040.4863)" />
    <linearGradient
       id="linearGradient329"
       inkscape:collect="always">
      <stop
         style="stop-color:#74a5ce;stop-opacity:1;"
         offset="0"
         id="stop328" />
      <stop
         style="stop-color:#305d95;stop-opacity:1;"
         offset="0.24830508"
         id="stop331" />
      <stop
         style="stop-color:#1d3c6e;stop-opacity:1;"
         offset="0.5"
         id="stop330" />
      <stop
         style="stop-color:#112645;stop-opacity:1;"
         offset="1"
         id="stop329" />
    </linearGradient>
    <linearGradient
       inkscape:collect="always"
       xlink:href="#linearGradient329"
       id="linearGradient1"
       gradientUnits="userSpaceOnUse"
       gradientTransform="matrix(1.3137033,0,0,1.3137033,-423.46486,-1040.4863)"
       x1="425.37952"
       y1="799.65863"
       x2="425.37952"
       y2="990.62994" />
  </defs>
  <g
     inkscape:label="Layer 1"
     inkscape:groupmode="layer"
     id="layer1">
    <path
       id="path249-4"
       style="display:inline;fill:#000a22;fill-opacity:1;stroke-linecap:round;stroke-linejoin:round;paint-order:stroke markers fill"
       sodipodi:type="inkscape:offset"
       inkscape:radius="1.9002733"
       inkscape:original="M 596.86719 793.92578 C 589.59572 793.92578 583.56445 799.95947 583.56445 807.23047 L 583.56445 807.40039 C 583.56445 814.67139 589.59619 820.70508 596.86719 820.70508 L 599.42578 820.70508 L 599.42578 840.71484 L 581.36523 840.71484 C 574.96911 840.71484 568.63867 845.25039 568.63867 852.17969 C 568.63867 859.10899 574.96911 863.64258 581.36523 863.64258 L 583.4668 863.64258 L 583.4668 911.65039 L 574.47852 911.65039 C 565.0806 911.65023 559.65832 923.50027 565.80273 930.61133 L 565.80469 930.61133 L 602.8125 973.43359 L 581.36523 973.43359 C 574.96962 973.43359 568.63867 977.96911 568.63867 984.89844 C 568.63867 991.82776 574.96911 996.36133 581.36523 996.36133 L 651.81055 996.36133 C 658.20667 996.36133 664.53712 991.82776 664.53711 984.89844 C 664.53712 977.96911 658.20617 973.43359 651.81055 973.43359 L 629.07812 973.43359 L 667.24414 930.75977 L 667.24219 930.75977 C 670.40124 927.22897 670.86103 922.23146 669.16406 918.43555 C 667.46708 914.63963 663.43695 911.6509 658.69922 911.65039 L 649.22852 911.65039 L 649.22852 863.64258 L 651.81055 863.64258 C 658.20668 863.64258 664.53711 859.10961 664.53711 852.17969 C 664.53711 845.24976 658.20668 840.71484 651.81055 840.71484 L 633.75 840.71484 L 633.75 820.70508 L 636.30859 820.70508 C 643.57959 820.70508 649.61328 814.67186 649.61328 807.40039 L 649.61328 807.23047 C 649.61328 799.959 643.58006 793.92578 636.30859 793.92578 L 596.86719 793.92578 z "
       d="m 596.86719,792.02539 c -8.32267,0 -15.20313,6.88323 -15.20313,15.20508 v 0.16992 c 0,8.32193 6.88086,15.20508 15.20313,15.20508 h 0.6582 v 16.20898 h -16.16016 c -3.64722,0 -7.23497,1.26971 -9.98437,3.57813 -2.7494,2.30842 -4.64258,5.74378 -4.64258,9.78711 0,4.04333 1.8931,7.47724 4.64258,9.78515 2.74947,2.30792 6.33734,3.57813 9.98437,3.57813 h 0.20118 V 909.75 h -7.08789 c -10.99533,-1.9e-4 -17.30212,13.78372 -10.11329,22.10352 a 1.9004634,1.9004634 0 0 0 1.4375,0.6582 h -0.86718 l 33.72265,39.02148 h -17.29297 c -3.647,0 -7.23492,1.26973 -9.98437,3.57813 -2.74945,2.30839 -4.64258,5.74372 -4.64258,9.78711 0,4.04334 1.8931,7.47724 4.64258,9.78515 2.74948,2.30792 6.33734,3.57813 9.98437,3.57813 h 70.44532 c 3.64703,0 7.23489,-1.27021 9.98437,-3.57813 2.74948,-2.30791 4.64259,-5.74181 4.64258,-9.78515 10e-6,-4.04339 -1.89312,-7.47872 -4.64258,-9.78711 -2.74945,-2.3084 -6.33736,-3.57813 -9.98437,-3.57813 h -18.48243 l 35.33204,-39.50586 a 1.9004634,1.9004634 0 0 0 0.002,-0.006 c 3.6877,-4.12617 4.23823,-9.88331 2.23633,-14.36132 -2.00281,-4.48001 -6.66243,-7.90956 -12.19922,-7.91016 h -7.57031 v -44.20703 h 0.68164 c 3.64697,0 7.23487,-1.27028 9.98437,-3.57813 2.74951,-2.30785 4.64258,-5.74156 4.64258,-9.78515 0,-4.0436 -1.89315,-7.47876 -4.64258,-9.78711 -2.74943,-2.30836 -6.3372,-3.57813 -9.98437,-3.57813 h -16.16016 v -16.20898 h 0.6582 c 8.32219,0 15.20508,-6.88241 15.20508,-15.20508 v -0.16992 c 0,-8.32259 -6.88249,-15.20508 -15.20508,-15.20508 z"
       transform="matrix(1.3137032,0,0,1.3137032,-674.65687,-1040.4863)" />
    <path
       style="display:inline;fill:#b3ff00;fill-opacity:1;stroke-width:1.3137;stroke-linecap:round;stroke-linejoin:round"
       d="m 80.036317,172.21371 54.373053,62.91691 56.26852,-62.91691 h -27.50106 l -6.2e-4,-90.067527 h -56.26935 v 90.067527 z"
       id="path250-9" />
    <path
       style="display:inline;fill:#b3ff00;fill-opacity:1;stroke-width:1.3137;stroke-linecap:round;stroke-linejoin:round;paint-order:stroke markers fill"
       d="m 89.085007,245.84797 c -5.09057,0 -9.18862,3.35773 -9.18862,7.52946 0,4.17152 4.09805,7.53008 9.18862,7.53008 H 181.6292 c 5.09057,0 9.18862,-3.35856 9.18862,-7.53008 0,-4.17173 -4.09805,-7.52946 -9.18862,-7.52946 z"
       id="path251-6" />
    <path
       style="display:inline;fill:url(#linearGradient1);fill-opacity:1;stroke-width:1.3137;stroke-linecap:round;stroke-linejoin:round;paint-order:stroke markers fill"
       d="m 89.085007,71.493853 c -5.09078,0 -9.18862,3.35856 -9.18862,7.53009 0,4.17152 4.09784,7.53008 9.18862,7.53008 h 10.29094 v 78.128367 h -19.33839 c -6.4482,-2.1e-4 -9.91429,7.57549 -5.69839,12.45451 l 54.372433,62.91691 c 2.96952,3.43575 8.28196,3.48137 11.31009,0.1032 l 56.26852,-62.91609 c 4.34015,-4.85096 0.89779,-12.55172 -5.6117,-12.55234 h -19.97634 l 0.004,-78.128367 h 10.92311 c 5.09057,0 9.18924,-3.35856 9.18924,-7.53008 0,-4.17153 -4.09867,-7.53009 -9.18924,-7.53009 z m 25.352563,18.18159 h 41.2098 l 0.009,82.537647 c 4.1e-4,4.15914 3.36248,7.5307 7.52162,7.5307 h 10.66389 l -39.33414,43.98366 -38.010163,-43.98366 h 10.409203 c 4.15915,0 7.53071,-3.37156 7.53071,-7.5307 v -10.04328 h 19.00446 v -10.28227 h -19.00446 v -15.06285 h 19.00446 v -10.28228 h -19.00446 v -15.06223 h 19.00446 v -10.28207 h -19.00446 z"
       id="path252-3"
       sodipodi:nodetypes="sssccscccccccssssccsscccssccccccccccccc" />
    <path
       style="display:inline;fill:url(#linearGradient253-4);fill-opacity:1;stroke:none;stroke-width:1.3137;stroke-linecap:round;stroke-linejoin:round;paint-order:stroke markers fill"
       d="m 109.44978,10.027851 c -5.51058,0 -9.946903,4.43694 -9.946903,9.947513 v 0.222899 c 0,5.510779 4.436323,9.946894 9.946903,9.946894 h 10.89194 v 37.563532 h 12.17094 V 30.145157 h 5.68951 v 37.563532 h 12.17032 V 30.145157 h 10.89174 c 5.51078,0 9.94772,-4.436115 9.94772,-9.946894 v -0.222899 c 0,-5.510573 -4.43694,-9.947513 -9.94772,-9.947513 z"
       id="path253-7" />
  </g>
</svg>
